<?xml version="1.0" encoding="utf-8"?>
<!-- Generator: Adobe Illustrator 24.0.1, SVG Export Plug-In . SVG Version: 6.00 Build 0)  -->
<svg version="1.1" xmlns="http://www.w3.org/2000/svg" xmlns:xlink="http://www.w3.org/1999/xlink" x="0px" y="0px" width="300px"
	 height="62px" viewBox="0 0 300 62" style="enable-background:new 0 0 300 62;" xml:space="preserve">
<style type="text/css">
	.st0{fill:#1D5981;}
	.st1{fill:#BF0019;}
</style>
<g id="Layer_1">
	<path class="st0" d="M269,33.9v4.6h-1v-4.6H269z"/>
	<path class="st0" d="M276.5,33.9v4.6h-1.7l-1.5-2.5c-0.1-0.1-0.2-0.3-0.4-0.7l-0.2-0.3l-0.2-0.3l0,0V35v0.3v0.6v2.6h-1v-4.6h1.7
		l1.4,2.3c0.1,0.2,0.3,0.5,0.4,0.8l0.2,0.4l0.2,0.4l0,0v-0.3v-0.3v-0.6v-2.7H276.5z"/>
	<path class="st0" d="M282.4,36.8h1V37c0,0.6-0.1,1.1-0.4,1.2c-0.3,0.2-0.9,0.3-1.8,0.3c-1.1,0-1.7-0.1-1.9-0.4
		c-0.2-0.3-0.4-1.1-0.4-2.4c0-0.8,0.2-1.3,0.5-1.5s1-0.4,2.1-0.4c0.8,0,1.3,0.1,1.5,0.3c0.3,0.2,0.4,0.6,0.4,1.2v0.1h-1v-0.1
		c0-0.3-0.1-0.5-0.2-0.6s-0.4-0.1-0.9-0.1c-0.6,0-1,0.1-1.1,0.2c-0.1,0.1-0.2,0.5-0.2,1.2c0,0.9,0.1,1.4,0.2,1.6
		c0.1,0.2,0.5,0.2,1.1,0.2c0.5,0,0.8,0,1-0.1s0.2-0.3,0.2-0.6L282.4,36.8z"/>
	<path class="st0" d="M299.9,30.8c-8.2-13.4-18.5-20.7-35.9-30.3l0,0h-17.2l-0.1,0.4c23.1,7.9,39.6,18,49.2,30
		C286.3,43,269.7,53.1,246.5,61l0.1,0.4l17.6,0.1l0,0c16.5-9.2,27.6-17.2,35.8-30.4v-0.3C300,30.8,299.9,30.8,299.9,30.8z"/>
	<path class="st0" d="M260.2,41.8c0,0-0.1-0.1-0.1-0.3l1.7-8.7h-7.3l-1.7,8.6c0,0.1-0.1,0.3-0.2,0.4c-0.1,0.1-0.3,0.2-1,0.2h-0.1
		l-0.2,0.9h9.9l0.2-0.9h-0.2C260.4,41.9,260.3,41.8,260.2,41.8z"/>
	<path class="st0" d="M272.8,19.5v0.1c-0.2,0.5-0.3,0.8-0.4,0.9s-0.3,0.2-0.5,0.2l0,0l-22.7-0.1c-0.3,0-0.3-0.1-0.3-0.1
		c0-0.1-0.1-0.2-0.1-0.8v-0.2h-0.9l-1.5,7.8h0.9v-0.1c0.2-0.5,0.3-0.8,0.4-0.9c0.1-0.1,0.3-0.2,0.5-0.2l0,0h7.7l-0.7,3.8h7.3
		l0.7-3.7h7.7c0.3,0,0.3,0.1,0.3,0.1c0,0.1,0.1,0.2,0.1,0.8v0.2h0.9l1.5-7.8L272.8,19.5z"/>
	<path class="st0" d="M121,20.7l-0.2,0.9h0.2c0.7,0.1,0.9,0.2,0.9,0.2c0,0.1,0.1,0.1,0.1,0.3l-1.5,7.8h7.2l1.5-7.7
		c0-0.1,0.1-0.3,0.2-0.4c0.1-0.1,0.3-0.2,1-0.2h0.1l0.2-0.9H121z"/>
	<path class="st0" d="M57.7,20.4l-0.2,0.9h0.2c0.3,0,0.5,0.1,0.6,0.2s0.1,0.2,0,0.3l-1.6,8h6.6l1.5-7.9c0-0.1,0.1-0.3,0.2-0.4
		s0.3-0.2,1-0.2h0.1l0.2-0.9H57.7z"/>
	<path class="st0" d="M61.3,41.5c0,0-0.1-0.1-0.1-0.3l1.7-8.5H47.3l0.6,0.7c1.2,1.4,2.2,2.6,3,3.6s1.4,1.7,1.9,2.3s0.9,1,1.1,1.3
		c0.2,0.3,0.4,0.5,0.5,0.6s0.1,0.2,0.1,0.2c0,0.1,0,0.1-0.2,0.2c-0.1,0-0.3,0.1-0.8,0.1h-0.2l-0.2,0.9h9.2l0.2-0.9h-0.2
		C61.4,41.7,61.3,41.6,61.3,41.5z"/>
	<path class="st0" d="M240.2,31.6h54.5c-0.3-0.3-0.8-0.5-1.6-0.9h-52.2c0.6-0.9,1-1.9,1.3-3c0.5-2.4,0-4.2-1.3-5.4
		c-1.3-1.2-3.7-1.7-7.1-1.8L217,20.4l-0.2,0.9h0.2c0.7,0.1,0.9,0.2,0.9,0.2s0.1,0.1,0.1,0.3l-1.7,8.9h-23l3.4-5.8l1.2,4.9h7
		l-0.1-0.5c0-0.1-0.1-0.3-0.1-0.4c-0.3-1.3-0.6-2.5-0.9-3.6c-0.2-1.1-0.4-1.9-0.6-2.6c-0.2-0.8-0.2-1-0.2-1c0-0.2,0.1-0.2,0.2-0.3
		c0.1,0,0.3-0.1,0.6-0.1h0.1l0.2-0.9H192l-0.2,0.9h0.2c0.2,0,0.4,0.1,0.6,0.1c0.1,0,0.1,0,0.1,0.1s-0.1,0.2-0.5,0.8l-1.3,2.2
		c-0.5,0.9-1.1,1.9-1.8,3s-1.3,2.2-2,3.3h-5.5c0.1-0.4,0.2-0.7,0.3-1.1c0.4-1.8,0.4-3.6,0.1-5.2c-0.3-1.6-1-3-2-4.2
		s-2.5-2.1-4.3-2.8c-1.8-0.7-4-1-6.6-1l-18.9-0.1l-0.2,0.9h0.2c0.9,0.1,1.1,0.2,1.1,0.3c0.1,0.1,0.1,0.2,0.1,0.4l-2.6,12.7h-5.9
		l0.3-1.3h-9.6l-0.3,1.3h-24.1l1.7-8.6c0-0.1,0.1-0.3,0.2-0.4s0.3-0.2,1-0.2h0.1l0.2-0.9h-9.8l-0.2,0.9h0.2c0.7,0.1,0.9,0.2,0.9,0.2
		s0.1,0.1,0.1,0.3l-1.7,8.7H89.7l0.5-2.8h-0.9V28c-0.1,0.2-0.3,0.4-0.5,0.6s-0.5,0.2-0.9,0.2h-8.4l0.6-3.1l14.8,0.1
		c0.3,0,0.3,0.1,0.3,0.1c0,0.1,0.1,0.2,0.1,0.8v0.2h0.9l1.5-7.6h-0.9v0.1c-0.2,0.5-0.3,0.8-0.4,0.9s-0.3,0.2-0.5,0.2l-23.3-0.1
		l-0.2,0.9h0.2c0.8,0.1,0.9,0.2,0.9,0.2s0.1,0.1,0.1,0.3l-1.7,8.8H43.5l0.4-2.2c0.3,0.4,0.7,0.8,1,1.2l0.1,0.1h9.1l-0.3-0.3
		c-0.3-0.3-0.5-0.6-0.8-1c-0.7-0.8-1.3-1.7-2-2.5c-0.6-0.8-1.2-1.5-1.8-2.2C48.7,23,48.3,22.5,48,22c-0.3-0.4-0.4-0.6-0.4-0.6
		c0-0.1,0.1-0.1,0.2-0.2c0.1-0.1,0.4-0.1,1-0.2H49l0.2-0.9H37.7L37.5,21h0.2c0.8,0.1,0.9,0.2,0.9,0.2s0.1,0.1,0.1,0.3l-1.8,9h-6.3
		l0,0c1.1-0.7,1.9-1.6,2.6-2.6c0.7-1,1.1-2.1,1.3-3.2s0.2-2.2,0-3.2c-0.3-1-0.8-1.9-1.5-2.7c-0.8-0.8-1.8-1.4-3.1-1.8
		c-1.3-0.5-2.8-0.7-4.6-0.7L5.2,16.4L5,17.3h0.2c0.9,0.1,1.1,0.2,1.1,0.3c0.1,0.1,0.1,0.2,0.1,0.4L1.9,40.8c0,0.2-0.1,0.3-0.3,0.4
		c-0.1,0.1-0.4,0.2-1.3,0.3H0.2l-0.2,1h11.9l0.2-0.9h-0.2c-0.9-0.1-1.1-0.2-1.1-0.3c-0.1-0.1-0.1-0.2-0.1-0.4l1.6-7.8h9.9
		c1.8,0,3.4-0.2,4.8-0.7c0.8-0.2,1.6-0.5,2.2-0.9h7.6L35,41c0,0.1-0.1,0.3-0.2,0.4c-0.1,0.1-0.3,0.2-1,0.2h-0.1l-0.2,0.9h9.2
		l0.2-0.9h-0.2c-0.7-0.1-0.9-0.2-0.9-0.2s-0.1-0.1-0.1-0.3l1.9-9.6h28.2l-1.9,9.6c0,0.1-0.1,0.3-0.2,0.4c-0.1,0.1-0.3,0.2-1,0.2
		h-0.1l-0.2,0.9l23.4,0.1c0.3,0,0.4,0.1,0.4,0.1s0.1,0.1,0.1,0.5v0.2h0.9l1.5-7.5h-0.9v0.1c-0.2,0.6-0.3,0.8-0.4,0.9
		c-0.1,0.1-0.3,0.2-0.5,0.2l-14.7-0.1l0.7-3.5h8.5c0.4,0,0.7,0.1,0.8,0.2c0.1,0.1,0.2,0.3,0.2,0.6v0.2h0.9l0.6-3.2h12.3l-0.3,1.5
		c-0.4,1.8-0.3,3.4,0.1,4.7s1.2,2.3,2.2,3.1s2.3,1.3,3.8,1.6s3.1,0.5,4.9,0.5h0.1c1.7,0,3.3-0.1,4.9-0.4c1.6-0.3,3.1-0.8,4.4-1.6
		s2.4-1.8,3.3-3c0.9-1.3,1.5-2.8,1.9-4.7l0.1-0.5h-7.2l-0.1,0.4c-0.3,1.5-1,2.7-2.1,3.3c-1.1,0.7-2.6,1-4.3,1c-1.8,0-3.1-0.3-3.9-1
		c-0.8-0.6-1.1-1.7-0.8-3.3l0.3-1.6h24.1l-0.3,1.5h9.5l0.4-1.5h5.9l-1.9,9.2c0,0.2-0.1,0.3-0.3,0.4c-0.1,0.1-0.4,0.2-1.3,0.3h-0.1
		l-0.2,1l18.3,0.1h0.1c2.6,0,5-0.4,7.1-1.1c2.1-0.7,4-1.7,5.6-2.9s2.9-2.6,3.9-4.1c0.6-0.9,1.1-1.9,1.4-2.9h5.3
		c-0.5,0.9-1.1,1.8-1.6,2.7c-0.7,1.1-1.3,2.2-1.9,3.1c-0.6,0.9-1,1.7-1.4,2.3s-0.6,1-0.7,1.1c-0.2,0.3-0.4,0.5-0.5,0.6
		s-0.4,0.2-0.7,0.2h-0.1l-0.2,0.9h8.3l0.2-0.9h-0.2c-0.4,0-0.5-0.1-0.5-0.1s0,0,0-0.1c0,0,0-0.1,0.1-0.2c0.1-0.1,0.2-0.3,0.3-0.6
		l0.6-1.1c0.3-0.5,0.6-1,1-1.7H200c0,0.2,0.1,0.4,0.1,0.6c0.1,0.4,0.2,0.8,0.3,1.2s0.2,0.8,0.3,1.2c0.1,0.3,0.1,0.5,0.1,0.5
		c-0.1,0.2-0.3,0.3-0.8,0.3h-0.2l-0.2,0.9h9.2l0.2-0.9h-0.2c-0.2,0-0.4-0.1-0.5-0.2c-0.1-0.1-0.2-0.3-0.4-0.9
		c-0.3-1-0.6-2.2-0.9-3.6c-0.3-1.3-0.7-2.7-1-4.1l-0.1-0.2h-7l0.4,1.4h-7.7l1.5-2.5h23.3l-1.8,9.6c0,0.1-0.1,0.3-0.2,0.4
		c-0.1,0.1-0.3,0.2-1,0.2h-0.1l-0.2,0.9h9.8l0.2-0.9h-0.2c-0.7-0.1-0.9-0.2-0.9-0.2c0-0.1-0.1-0.1-0.1-0.3l1.3-6.8h4.2
		c0.1,0.2,0.2,0.4,0.4,0.7c0.2,0.4,0.5,0.8,0.8,1.3s0.6,1,1,1.6c0.3,0.5,0.6,1.1,0.9,1.5c0.3,0.5,0.5,0.9,0.7,1.2s0.2,0.4,0.2,0.5
		c-0.1,0.2-0.2,0.5-1,0.6h-0.2l-0.2,0.9h9.8l0.2-0.9h-0.2c-0.4,0-0.8-0.2-1-0.7l-3.9-6.7c1.9-0.5,3.5-1.2,4.9-2.3
		C239.7,32.1,239.9,31.8,240.2,31.6z M224.4,25.5h7.5c1.3,0,2.1,0.2,2.5,0.6s0.5,0.9,0.4,1.4c-0.1,0.6-0.4,1.1-1,1.5
		s-1.5,0.6-2.8,0.6h-7.4L224.4,25.5z M26.4,24.8c-0.2,1-0.7,1.7-1.4,2.1c-0.8,0.4-1.9,0.7-3.5,0.6h-8.2l1-5.2h8.3
		c1.5,0,2.6,0.2,3.2,0.6C26.4,23.3,26.6,23.9,26.4,24.8z M173.1,29.5c-0.4,2-1.4,3.7-2.9,5s-3.8,1.9-6.7,1.9h-6.9l2.8-13.8h7
		c2.9,0,4.9,0.7,5.9,1.9C173.2,25.8,173.5,27.5,173.1,29.5z"/>
</g>
<g id="Layer_2">
	<polygon class="st1" points="30.6,30.5 36.9,30.5 36.8,31.5 29.2,31.5 	"/>
</g>
<g id="Layer_3">
	<polygon class="st1" points="43.5,30.6 43.4,31.5 71.8,31.5 71.9,30.6 	"/>
	<polygon class="st1" points="89.7,30.7 102.3,30.7 102.2,31.4 89.5,31.4 	"/>
	<polygon class="st1" points="109.2,30.7 109,31.4 133.6,31.4 133.9,30.7 	"/>
	<polygon class="st1" points="142.9,30.7 142.7,31.4 149.1,31.4 149.3,30.7 	"/>
	<polygon class="st1" points="181.6,30.8 181.4,31.4 187,31.4 187.2,30.8 	"/>
	<polygon class="st1" points="193.3,30.7 193.1,31.3 216.4,31.3 216.5,30.7 	"/>
	<path class="st1" d="M240.9,30.7l-0.7,0.9h54.5c0,0-0.6-0.6-1.6-0.9H240.9z"/>
</g>
</svg>
